<svg width="143" height="39" viewBox="0 0 143 39" fill="none" xmlns="http://www.w3.org/2000/svg">
<path d="M22.9516 11.708C22.7772 11.2254 22.7469 10.6382 22.8369 10.1316C23.0711 8.81165 23.3962 7.50564 23.709 6.20056C23.9109 5.35767 23.69 4.77043 22.8275 4.41938C21.6634 3.94607 21.1828 3.67005 20.9364 3.53204C20.9354 3.53111 20.9335 3.53018 20.9326 3.53018C20.8359 3.49128 20.7383 3.45423 20.6406 3.42089C20.2681 3.29399 19.797 3.44497 19.3704 3.4709C19.4093 3.62929 19.4463 3.78768 19.4842 3.94607V3.947C19.5581 4.25266 19.6321 4.55925 19.7164 4.86213C19.7676 4.91122 19.8207 4.94456 19.8633 4.96679C19.887 4.97791 19.9098 4.98903 19.9306 5.00107C19.9373 5.00477 19.943 5.00755 19.9477 5.01033C20.5762 5.39657 21.7137 5.75596 21.7355 6.17277C21.799 7.33706 21.4701 8.54582 21.1335 9.69066C21.053 9.96668 20.3259 10.2483 19.924 10.214C17.9893 10.0519 16.0613 9.5721 14.137 9.60174C11.4033 9.64435 8.66667 9.9676 5.94807 10.3038C4.74044 10.453 4.08828 10.2649 3.89206 8.9793C3.73945 7.9808 3.36218 7.01473 3.06359 5.95973C6.07509 4.73338 9.10839 3.46813 12.1749 2.28438C12.19 2.27882 12.2043 2.27327 12.2194 2.26864C13.0498 1.97131 13.6214 2.43814 13.6479 2.46037C13.6489 2.4613 13.6489 2.4613 13.6489 2.4613C14.5693 2.6873 15.2783 3.09114 15.8499 3.45145C16.6244 3.93959 17.1495 4.34806 17.6111 4.13317C17.7618 4.06278 17.9609 3.90068 18.0917 3.46813C17.8614 3.03094 17.7457 2.38442 17.3808 2.19639C16.0859 1.52764 14.721 0.979299 13.3503 0.467084C12.9455 0.316106 12.373 0.292024 11.9815 0.453191C8.9245 1.70826 5.89594 3.03094 2.85126 4.31472C1.63131 4.82971 1.3147 5.70409 1.65026 6.89987C1.78771 7.38986 1.87113 7.89466 1.98582 8.39113C2.39911 10.1973 3.05317 11.9099 1.84079 13.7958C1.18484 14.8174 1.25688 16.2855 1 17.5517V22.8489C1.31186 24.38 1.58296 25.9213 1.94506 27.4413C2.52708 29.8801 4.52147 31.4704 7.03343 31.3936C8.82497 31.3389 10.6061 31.0231 12.3986 30.9425C13.2792 30.9036 14.1702 31.175 15.0613 31.2343C16.431 31.325 17.8064 31.4204 19.1771 31.3936C21.5288 31.3482 22.6701 29.7106 23.1896 27.8368C24.6806 22.4645 24.8882 17.0627 22.9516 11.708ZM5.913 11.9387C8.07328 11.6969 10.2222 11.231 12.3844 11.1727C14.1949 11.1245 16.0196 11.5469 17.8377 11.7506C18.3268 11.8062 18.8169 11.8664 19.3031 11.9433C21.4606 12.2842 21.4919 12.2851 21.234 14.6174H3.92714C3.67499 12.4722 3.94609 12.1582 5.913 11.9387ZM17.9097 16.6709C18.9818 16.682 19.4842 17.0904 19.4226 18.2899C19.306 20.5648 19.0216 22.7146 17.1448 24.3374C14.8565 26.3159 11.5549 26.5623 8.98137 24.9284C6.42677 23.3065 5.14235 20.1146 6.10353 17.4471C6.24193 17.0636 7.02869 16.7088 7.53392 16.681C9.28186 16.5884 11.0393 16.6459 12.792 16.6459V16.6662C14.4982 16.6662 16.2044 16.6523 17.9097 16.6709ZM22.3251 17.5851C22.1241 20.7639 22.0682 23.9688 21.5819 27.1087C21.2331 29.3651 19.8615 30.1774 17.5524 29.8245C14.2356 29.3178 10.9616 29.3354 7.64483 29.7986C5.09306 30.1542 3.57262 28.9631 3.27024 26.1871C2.96975 23.4315 3.03516 20.638 2.9489 17.8611C2.94321 17.6795 2.95553 17.4535 3.05791 17.3229C3.25791 17.0673 3.52901 16.8654 3.76978 16.6412C3.90723 16.933 4.13757 17.2173 4.16411 17.5184C4.29682 19.0263 4.13378 20.6009 4.52242 22.0357C5.33762 25.0432 7.51496 26.9994 10.5492 27.7432C13.9863 28.5852 17.0386 27.7488 19.2993 24.8913C20.8406 22.9443 21.5146 20.7204 21.4663 18.2714C21.4549 17.6971 21.4644 17.1219 21.4644 16.5467C21.6445 16.5264 21.8246 16.5051 22.0037 16.4847C22.1175 16.8515 22.3478 17.2257 22.3251 17.5851Z" fill="#365278"/>
<path d="M22.0047 16.4845C22.1175 16.8513 22.3487 17.2264 22.326 17.5849C22.125 20.7638 22.0691 23.9686 21.5828 27.1086C21.234 29.3658 19.8614 30.1772 17.5523 29.8243C14.2366 29.3177 10.9625 29.3362 7.64575 29.7984C5.09399 30.1541 3.57354 28.9638 3.27116 26.1879C2.97068 23.4323 3.03608 20.6387 2.94982 17.8609C2.94413 17.6794 2.95551 17.4534 3.05883 17.3228C3.25884 17.068 3.52994 16.8652 3.77071 16.641C3.90721 16.9328 4.1385 17.2172 4.16504 17.5191C4.2968 19.027 4.13376 20.6017 4.52335 22.0364C5.33855 25.043 7.51589 27.0002 10.5501 27.744C13.9873 28.5859 17.0395 27.7495 19.3003 24.892C20.8406 22.9451 21.5155 20.7212 21.4672 18.2722C21.4558 17.6979 21.4653 17.1227 21.4653 16.5475C21.6444 16.5262 21.8245 16.5049 22.0047 16.4845Z" fill="#D3E6FA"/>
<path d="M3.92702 14.617C3.67582 12.4718 3.94598 12.1578 5.91194 11.9383C8.07222 11.6966 10.2211 11.2307 12.3833 11.1732C14.1947 11.1241 16.0185 11.5474 17.8366 11.7512C18.3257 11.8059 18.8158 11.8661 19.3021 11.9439C21.4595 12.2857 21.4908 12.2857 21.233 14.618H3.92702V14.617Z" fill="#D3E6FA"/>
<path d="M13.939 5.55398H14.8205C15.0139 5.55398 15.1703 5.70681 15.1703 5.89576V6.52098C15.1703 6.70993 15.0139 6.86276 14.8205 6.86276H13.939C13.7456 6.86276 13.5892 7.01559 13.5892 7.20455V8.29196C13.5892 8.48092 13.4328 8.63375 13.2394 8.63375H12.4783C12.2849 8.63375 12.1285 8.48092 12.1285 8.29196V7.20547C12.1285 7.01652 11.9721 6.86369 11.7787 6.86369H10.8924C10.699 6.86369 10.5426 6.71086 10.5426 6.5219V5.89669C10.5426 5.70773 10.699 5.5549 10.8924 5.5549H11.7787C11.9721 5.5549 12.1285 5.40207 12.1285 5.21312V4.17479C12.1285 3.98584 12.2849 3.83301 12.4783 3.83301H13.2394C13.4328 3.83301 13.5892 3.98584 13.5892 4.17479V5.21312C13.5892 5.40114 13.7456 5.55398 13.939 5.55398Z" fill="#365278"/>
<path d="M16.8925 4.13603C17.3779 4.37273 17.9633 4.17111 18.2 3.6857C18.4367 3.20029 18.2351 2.6149 17.7497 2.3782L16.8925 4.13603ZM12.5009 1.20175L12.106 0.307213L12.5009 1.20175ZM13.1306 1.21368L12.702 2.0926L13.1306 1.21368ZM2.91973 5.43214L2.52476 4.53761L2.91973 5.43214ZM4.62005 10.7753L3.44511 6.06035L1.54746 6.53323L2.72239 11.2482L4.62005 10.7753ZM3.31469 6.32667L12.8959 2.09628L12.106 0.307213L2.52476 4.53761L3.31469 6.32667ZM12.702 2.0926L16.8925 4.13603L17.7497 2.3782L13.5591 0.334766L12.702 2.0926ZM12.8959 2.09628C12.8339 2.12367 12.7629 2.12232 12.702 2.0926L13.5591 0.334766C13.1024 0.112063 12.5708 0.101982 12.106 0.307213L12.8959 2.09628ZM3.44511 6.06035C3.4722 6.16903 3.41715 6.28143 3.31469 6.32667L2.52476 4.53761C1.757 4.8766 1.34452 5.71887 1.54746 6.53323L3.44511 6.06035Z" fill="#34517C"/>
<path d="M19.6908 3.91101L22.8189 5.59274L21.7762 11.1051" stroke="#34517C" stroke-width="1.76944" stroke-linecap="round" stroke-linejoin="round"/>
<path d="M8.58335 20.8824H9.35891L9.61743 20.3756L10.0483 21.5583L11.3409 18.686L11.7718 23.0789H12.2888L12.892 21.0514H13.4952L13.7537 20.2911L13.9261 20.629L14.2708 19.7842L14.9602 20.8824H17.1145" stroke="#30517A" stroke-width="0.507972" stroke-linecap="round" stroke-linejoin="round"/>
<path d="M2.48607 15.3563C0.132863 15.3563 1.50742 28.8101 2.88182 26.8481" stroke="#34517C" stroke-width="0.931282"/>
<path d="M46.9061 13.2212C46.0741 12.3252 45.2634 11.7279 44.4741 11.4292C43.7061 11.1305 42.9274 10.9812 42.1381 10.9812C40.9648 10.9812 39.8981 11.1945 38.9381 11.6212C37.9994 12.0265 37.1888 12.6025 36.5061 13.3492C35.8234 14.0745 35.2901 14.9279 34.9061 15.9092C34.5434 16.8905 34.3621 17.9465 34.3621 19.0772C34.3621 20.2932 34.5434 21.4132 34.9061 22.4372C35.2901 23.4612 35.8234 24.3465 36.5061 25.0932C37.1888 25.8399 37.9994 26.4265 38.9381 26.8532C39.8981 27.2799 40.9648 27.4932 42.1381 27.4932C43.0554 27.4932 43.9408 27.2799 44.7941 26.8532C45.6688 26.4052 46.4794 25.7012 47.2261 24.7412L50.5541 27.1092C49.5301 28.5172 48.2821 29.5412 46.8101 30.1812C45.3381 30.8212 43.7701 31.1412 42.1061 31.1412C40.3568 31.1412 38.7461 30.8639 37.2741 30.3092C35.8234 29.7332 34.5648 28.9332 33.4981 27.9092C32.4528 26.8639 31.6314 25.6159 31.0341 24.1652C30.4368 22.7145 30.1381 21.1039 30.1381 19.3332C30.1381 17.5199 30.4368 15.8772 31.0341 14.4052C31.6314 12.9119 32.4528 11.6425 33.4981 10.5972C34.5648 9.55185 35.8234 8.75185 37.2741 8.19718C38.7461 7.62118 40.3568 7.33319 42.1061 7.33319C43.6421 7.33319 45.0608 7.61052 46.3621 8.16518C47.6848 8.69852 48.9114 9.61585 50.0421 10.9172L46.9061 13.2212ZM52.9723 6.37318H56.8123V30.5652H52.9723V6.37318ZM70.8208 28.4532H70.7248C70.1702 29.3279 69.4662 29.9679 68.6128 30.3732C67.7595 30.7572 66.8208 30.9492 65.7968 30.9492C65.0928 30.9492 64.3995 30.8532 63.7168 30.6612C63.0555 30.4692 62.4582 30.1812 61.9248 29.7972C61.4128 29.4132 60.9968 28.9332 60.6768 28.3572C60.3568 27.7812 60.1968 27.1092 60.1968 26.3412C60.1968 25.5092 60.3462 24.8052 60.6448 24.2292C60.9435 23.6319 61.3382 23.1412 61.8288 22.7572C62.3408 22.3519 62.9275 22.0319 63.5888 21.7972C64.2502 21.5625 64.9328 21.3919 65.6368 21.2852C66.3622 21.1572 67.0875 21.0825 67.8128 21.0612C68.5382 21.0185 69.2208 20.9972 69.8608 20.9972H70.8208V20.5812C70.8208 19.6212 70.4902 18.9065 69.8288 18.4372C69.1675 17.9465 68.3248 17.7012 67.3008 17.7012C66.4902 17.7012 65.7328 17.8505 65.0288 18.1492C64.3248 18.4265 63.7168 18.8105 63.2048 19.3012L61.1888 17.2852C62.0422 16.4105 63.0342 15.7812 64.1648 15.3972C65.3168 15.0132 66.5008 14.8212 67.7168 14.8212C68.8048 14.8212 69.7222 14.9492 70.4688 15.2052C71.2155 15.4399 71.8342 15.7492 72.3248 16.1332C72.8155 16.5172 73.1888 16.9652 73.4448 17.4772C73.7222 17.9679 73.9142 18.4692 74.0208 18.9812C74.1488 19.4932 74.2235 19.9945 74.2448 20.4852C74.2662 20.9545 74.2768 21.3705 74.2768 21.7332V30.5652H70.8208V28.4532ZM70.5968 23.6852H69.7968C69.2635 23.6852 68.6662 23.7065 68.0048 23.7492C67.3435 23.7919 66.7142 23.8985 66.1168 24.0692C65.5408 24.2185 65.0502 24.4532 64.6448 24.7732C64.2395 25.0719 64.0368 25.4985 64.0368 26.0532C64.0368 26.4159 64.1115 26.7252 64.2608 26.9812C64.4315 27.2159 64.6448 27.4185 64.9008 27.5892C65.1568 27.7599 65.4448 27.8879 65.7648 27.9732C66.0848 28.0372 66.4048 28.0692 66.7248 28.0692C68.0475 28.0692 69.0182 27.7599 69.6368 27.1412C70.2768 26.5012 70.5968 25.6372 70.5968 24.5492V23.6852ZM79.7843 18.4692H76.6163V15.2052H79.7843V13.0292C79.7843 11.9625 79.859 11.0025 80.0083 10.1492C80.1577 9.27452 80.435 8.52785 80.8403 7.90919C81.267 7.29052 81.8537 6.82118 82.6003 6.50118C83.347 6.15985 84.3177 5.98919 85.5123 5.98919C86.387 5.98919 87.1977 6.06385 87.9443 6.21318L87.6883 9.47718C87.411 9.41318 87.1443 9.35985 86.8883 9.31718C86.6323 9.27452 86.3657 9.25319 86.0883 9.25319C85.555 9.25319 85.1283 9.33852 84.8083 9.50918C84.4883 9.67985 84.2323 9.91452 84.0403 10.2132C83.8697 10.4905 83.7523 10.8212 83.6883 11.2052C83.6457 11.5892 83.6243 11.9945 83.6243 12.4212V15.2052H87.1763V18.4692H83.6243V30.5652H79.7843V18.4692ZM89.6723 15.2052H93.5123V30.5652H89.6723V15.2052ZM89.1603 9.98919C89.1603 9.37052 89.3843 8.83718 89.8323 8.38918C90.3017 7.91985 90.8883 7.68518 91.5923 7.68518C92.2963 7.68518 92.883 7.90918 93.3523 8.35719C93.843 8.78385 94.0883 9.32785 94.0883 9.98919C94.0883 10.6505 93.843 11.2052 93.3523 11.6532C92.883 12.0799 92.2963 12.2932 91.5923 12.2932C90.8883 12.2932 90.3017 12.0692 89.8323 11.6212C89.3843 11.1519 89.1603 10.6079 89.1603 9.98919ZM95.2971 15.2052H99.5211L103.809 25.8612H103.873L107.713 15.2052H111.713L104.449 33.8612C104.172 34.5865 103.862 35.2159 103.521 35.7492C103.201 36.3039 102.817 36.7625 102.369 37.1252C101.921 37.5092 101.388 37.7865 100.769 37.9572C100.172 38.1492 99.4464 38.2452 98.5931 38.2452C97.5904 38.2452 96.6091 38.1172 95.6491 37.8612L96.1291 34.4052C96.4278 34.5119 96.7371 34.5972 97.0571 34.6612C97.3984 34.7465 97.7398 34.7892 98.0811 34.7892C98.5504 34.7892 98.9451 34.7465 99.2651 34.6612C99.5851 34.5759 99.8518 34.4372 100.065 34.2452C100.3 34.0745 100.492 33.8399 100.641 33.5412C100.79 33.2639 100.95 32.9225 101.121 32.5172L101.857 30.6932L95.2971 15.2052ZM123.571 28.4532H123.475C122.92 29.3279 122.216 29.9679 121.363 30.3732C120.51 30.7572 119.571 30.9492 118.547 30.9492C117.843 30.9492 117.15 30.8532 116.467 30.6612C115.806 30.4692 115.208 30.1812 114.675 29.7972C114.163 29.4132 113.747 28.9332 113.427 28.3572C113.107 27.7812 112.947 27.1092 112.947 26.3412C112.947 25.5092 113.096 24.8052 113.395 24.2292C113.694 23.6319 114.088 23.1412 114.579 22.7572C115.091 22.3519 115.678 22.0319 116.339 21.7972C117 21.5625 117.683 21.3919 118.387 21.2852C119.112 21.1572 119.838 21.0825 120.563 21.0612C121.288 21.0185 121.971 20.9972 122.611 20.9972H123.571V20.5812C123.571 19.6212 123.24 18.9065 122.579 18.4372C121.918 17.9465 121.075 17.7012 120.051 17.7012C119.24 17.7012 118.483 17.8505 117.779 18.1492C117.075 18.4265 116.467 18.8105 115.955 19.3012L113.939 17.2852C114.792 16.4105 115.784 15.7812 116.915 15.3972C118.067 15.0132 119.251 14.8212 120.467 14.8212C121.555 14.8212 122.472 14.9492 123.219 15.2052C123.966 15.4399 124.584 15.7492 125.075 16.1332C125.566 16.5172 125.939 16.9652 126.195 17.4772C126.472 17.9679 126.664 18.4692 126.771 18.9812C126.899 19.4932 126.974 19.9945 126.995 20.4852C127.016 20.9545 127.027 21.3705 127.027 21.7332V30.5652H123.571V28.4532ZM123.347 23.6852H122.547C122.014 23.6852 121.416 23.7065 120.755 23.7492C120.094 23.7919 119.464 23.8985 118.867 24.0692C118.291 24.2185 117.8 24.4532 117.395 24.7732C116.99 25.0719 116.787 25.4985 116.787 26.0532C116.787 26.4159 116.862 26.7252 117.011 26.9812C117.182 27.2159 117.395 27.4185 117.651 27.5892C117.907 27.7599 118.195 27.8879 118.515 27.9732C118.835 28.0372 119.155 28.0692 119.475 28.0692C120.798 28.0692 121.768 27.7599 122.387 27.1412C123.027 26.5012 123.347 25.6372 123.347 24.5492V23.6852Z" fill="#31517A"/>
</svg>
